<svg xmlns="http://www.w3.org/2000/svg" xmlns:xlink="http://www.w3.org/1999/xlink" width="24" height="24" viewBox="0 0 24 24"><defs><clipPath id="a"><rect width="24" height="24" fill="#f0f" opacity="0.2"/></clipPath></defs><g clip-path="url(#a)"><g transform="translate(3.219 3.19)"><path d="M-2253.661,1619.933v3.574a5.483,5.483,0,0,1-.036.67c-.206,2.412-1.626,3.61-4.244,3.61h-.358a.719.719,0,0,0-.572.286l-1.072,1.429a1.012,1.012,0,0,1-1.394.322,1,1,0,0,1-.322-.322l-1.072-1.429a.825.825,0,0,0-.572-.286h-.357c-2.851,0-4.28-.706-4.28-4.28v-3.574c0-2.618,1.206-4.039,3.61-4.244a5.322,5.322,0,0,1,.67-.036h5.718Q-2253.666,1615.653-2253.661,1619.933Z" transform="translate(2267.939 -1612.079)" fill="none" stroke="#fff" stroke-linecap="round" stroke-linejoin="round" stroke-width="1.2"/><path d="M-2249.657,1615.933v3.574q0,3.94-3.61,4.244a5.386,5.386,0,0,0,.036-.67v-3.574q0-4.275-4.28-4.28h-5.718a5.423,5.423,0,0,0-.669.036c.205-2.4,1.625-3.61,4.243-3.61h5.719Q-2249.662,1611.653-2249.657,1615.933Z" transform="translate(2267.508 -1611.653)" fill="none" stroke="#fff" stroke-linecap="round" stroke-linejoin="round" stroke-width="1.2"/><line transform="translate(10.275 10.052)" fill="none" stroke="#fff" stroke-linecap="round" stroke-linejoin="round" stroke-width="1.2"/><line transform="translate(7.148 10.052)" fill="none" stroke="#fff" stroke-linecap="round" stroke-linejoin="round" stroke-width="1.2"/><line transform="translate(4.02 10.052)" fill="none" stroke="#fff" stroke-linecap="round" stroke-linejoin="round" stroke-width="1.2"/></g></g></svg>